<mxfile host="app.diagrams.net" agent="Mozilla/5.0 (Windows NT 10.0; Win64; x64) AppleWebKit/537.36 (KHTML, like Gecko) Chrome/131.0.0.0 Safari/537.36" version="25.0.3">
  <diagram name="Page-1" id="B9kMNTafXM9O4eHKwqYC">
    <mxGraphModel dx="1050" dy="603" grid="1" gridSize="10" guides="1" tooltips="1" connect="1" arrows="1" fold="1" page="1" pageScale="1" pageWidth="850" pageHeight="1100" math="0" shadow="0">
      <root>
        <mxCell id="0" />
        <mxCell id="1" parent="0" />
        <mxCell id="z5392aBPXgnWjsZ3jZZj-1" value="Halaman Data Master Dosen Pembimbing" style="shape=umlLifeline;perimeter=lifelinePerimeter;whiteSpace=wrap;html=1;container=0;dropTarget=0;collapsible=0;recursiveResize=0;outlineConnect=0;portConstraint=eastwest;newEdgeStyle={&quot;edgeStyle&quot;:&quot;elbowEdgeStyle&quot;,&quot;elbow&quot;:&quot;vertical&quot;,&quot;curved&quot;:0,&quot;rounded&quot;:0};" vertex="1" parent="1">
          <mxGeometry x="215" y="170" width="100" height="370" as="geometry" />
        </mxCell>
        <mxCell id="z5392aBPXgnWjsZ3jZZj-2" value="" style="html=1;points=[];perimeter=orthogonalPerimeter;outlineConnect=0;targetShapes=umlLifeline;portConstraint=eastwest;newEdgeStyle={&quot;edgeStyle&quot;:&quot;elbowEdgeStyle&quot;,&quot;elbow&quot;:&quot;vertical&quot;,&quot;curved&quot;:0,&quot;rounded&quot;:0};" vertex="1" parent="z5392aBPXgnWjsZ3jZZj-1">
          <mxGeometry x="45" y="70" width="10" height="220" as="geometry" />
        </mxCell>
        <mxCell id="z5392aBPXgnWjsZ3jZZj-3" value="DataMasterDosbing()" style="html=1;verticalAlign=bottom;startArrow=oval;endArrow=block;startSize=8;edgeStyle=elbowEdgeStyle;elbow=vertical;curved=0;rounded=0;" edge="1" parent="z5392aBPXgnWjsZ3jZZj-1" target="z5392aBPXgnWjsZ3jZZj-2">
          <mxGeometry relative="1" as="geometry">
            <mxPoint x="-70" y="70" as="sourcePoint" />
          </mxGeometry>
        </mxCell>
        <mxCell id="z5392aBPXgnWjsZ3jZZj-4" value="DataDosbing()" style="html=1;verticalAlign=bottom;endArrow=block;edgeStyle=elbowEdgeStyle;elbow=horizontal;curved=0;rounded=0;" edge="1" parent="z5392aBPXgnWjsZ3jZZj-1">
          <mxGeometry relative="1" as="geometry">
            <mxPoint x="225" y="210" as="sourcePoint" />
            <Array as="points">
              <mxPoint x="140" y="210" />
            </Array>
            <mxPoint x="65" y="210" as="targetPoint" />
          </mxGeometry>
        </mxCell>
        <mxCell id="z5392aBPXgnWjsZ3jZZj-5" value="" style="html=1;points=[[0,0,0,0,5],[0,1,0,0,-5],[1,0,0,0,5],[1,1,0,0,-5]];perimeter=orthogonalPerimeter;outlineConnect=0;targetShapes=umlLifeline;portConstraint=eastwest;newEdgeStyle={&quot;curved&quot;:0,&quot;rounded&quot;:0};" vertex="1" parent="z5392aBPXgnWjsZ3jZZj-1">
          <mxGeometry x="55" y="210" width="10" height="30" as="geometry" />
        </mxCell>
        <mxCell id="z5392aBPXgnWjsZ3jZZj-6" value="TambahDosbing()" style="html=1;verticalAlign=bottom;endArrow=block;edgeStyle=elbowEdgeStyle;elbow=vertical;curved=0;rounded=0;" edge="1" parent="1" source="z5392aBPXgnWjsZ3jZZj-2" target="z5392aBPXgnWjsZ3jZZj-45">
          <mxGeometry relative="1" as="geometry">
            <mxPoint x="370" y="260" as="sourcePoint" />
            <Array as="points">
              <mxPoint x="355" y="250" />
            </Array>
          </mxGeometry>
        </mxCell>
        <mxCell id="z5392aBPXgnWjsZ3jZZj-7" value="Koordinator" style="shape=umlActor;verticalLabelPosition=bottom;verticalAlign=top;html=1;outlineConnect=0;" vertex="1" parent="1">
          <mxGeometry x="105" y="210" width="30" height="60" as="geometry" />
        </mxCell>
        <mxCell id="z5392aBPXgnWjsZ3jZZj-8" value="" style="group" vertex="1" connectable="0" parent="1">
          <mxGeometry x="545" y="150" width="70" height="370" as="geometry" />
        </mxCell>
        <mxCell id="z5392aBPXgnWjsZ3jZZj-9" value="Control Object" style="ellipse;shape=umlControl;whiteSpace=wrap;html=1;" vertex="1" parent="z5392aBPXgnWjsZ3jZZj-8">
          <mxGeometry width="70" height="80" as="geometry" />
        </mxCell>
        <mxCell id="z5392aBPXgnWjsZ3jZZj-10" value="" style="group" vertex="1" connectable="0" parent="z5392aBPXgnWjsZ3jZZj-8">
          <mxGeometry x="30" y="80" width="10" height="290" as="geometry" />
        </mxCell>
        <mxCell id="z5392aBPXgnWjsZ3jZZj-11" value="" style="group" vertex="1" connectable="0" parent="z5392aBPXgnWjsZ3jZZj-10">
          <mxGeometry y="40" width="10" height="250" as="geometry" />
        </mxCell>
        <mxCell id="z5392aBPXgnWjsZ3jZZj-12" value="" style="html=1;points=[[0,0,0,0,5],[0,1,0,0,-5],[1,0,0,0,5],[1,1,0,0,-5]];perimeter=orthogonalPerimeter;outlineConnect=0;targetShapes=umlLifeline;portConstraint=eastwest;newEdgeStyle={&quot;curved&quot;:0,&quot;rounded&quot;:0};" vertex="1" parent="z5392aBPXgnWjsZ3jZZj-11">
          <mxGeometry width="10" height="150" as="geometry" />
        </mxCell>
        <mxCell id="z5392aBPXgnWjsZ3jZZj-13" value="" style="endArrow=none;dashed=1;html=1;rounded=0;" edge="1" parent="z5392aBPXgnWjsZ3jZZj-11" target="z5392aBPXgnWjsZ3jZZj-12">
          <mxGeometry width="50" height="50" relative="1" as="geometry">
            <mxPoint x="5" y="250" as="sourcePoint" />
            <mxPoint x="4.5" y="210" as="targetPoint" />
          </mxGeometry>
        </mxCell>
        <mxCell id="z5392aBPXgnWjsZ3jZZj-14" value="" style="endArrow=none;dashed=1;html=1;rounded=0;" edge="1" parent="z5392aBPXgnWjsZ3jZZj-10">
          <mxGeometry width="50" height="50" relative="1" as="geometry">
            <mxPoint x="5" y="40" as="sourcePoint" />
            <mxPoint x="4.5" as="targetPoint" />
          </mxGeometry>
        </mxCell>
        <mxCell id="z5392aBPXgnWjsZ3jZZj-15" value="DataDosbing()" style="html=1;verticalAlign=bottom;endArrow=block;edgeStyle=elbowEdgeStyle;elbow=vertical;curved=0;rounded=0;" edge="1" parent="z5392aBPXgnWjsZ3jZZj-8">
          <mxGeometry relative="1" as="geometry">
            <mxPoint x="155" y="230" as="sourcePoint" />
            <Array as="points">
              <mxPoint x="125" y="230" />
            </Array>
            <mxPoint x="50" y="230" as="targetPoint" />
          </mxGeometry>
        </mxCell>
        <mxCell id="z5392aBPXgnWjsZ3jZZj-16" value="" style="html=1;points=[[0,0,0,0,5],[0,1,0,0,-5],[1,0,0,0,5],[1,1,0,0,-5]];perimeter=orthogonalPerimeter;outlineConnect=0;targetShapes=umlLifeline;portConstraint=eastwest;newEdgeStyle={&quot;curved&quot;:0,&quot;rounded&quot;:0};" vertex="1" parent="z5392aBPXgnWjsZ3jZZj-8">
          <mxGeometry x="40" y="230" width="10" height="30" as="geometry" />
        </mxCell>
        <mxCell id="z5392aBPXgnWjsZ3jZZj-17" value="FromTambah()" style="html=1;verticalAlign=bottom;endArrow=block;edgeStyle=elbowEdgeStyle;elbow=vertical;curved=0;rounded=0;" edge="1" parent="1">
          <mxGeometry relative="1" as="geometry">
            <mxPoint x="450" y="280" as="sourcePoint" />
            <Array as="points">
              <mxPoint x="523" y="280" />
            </Array>
            <mxPoint x="575" y="280" as="targetPoint" />
          </mxGeometry>
        </mxCell>
        <mxCell id="z5392aBPXgnWjsZ3jZZj-18" value="tambahData()" style="html=1;verticalAlign=bottom;endArrow=block;edgeStyle=elbowEdgeStyle;elbow=vertical;curved=0;rounded=0;" edge="1" parent="1" source="z5392aBPXgnWjsZ3jZZj-12" target="z5392aBPXgnWjsZ3jZZj-32">
          <mxGeometry relative="1" as="geometry">
            <mxPoint x="615" y="340" as="sourcePoint" />
            <Array as="points">
              <mxPoint x="668" y="340" />
            </Array>
            <mxPoint x="715" y="340" as="targetPoint" />
          </mxGeometry>
        </mxCell>
        <mxCell id="z5392aBPXgnWjsZ3jZZj-19" value="Database" style="ellipse;shape=umlEntity;whiteSpace=wrap;html=1;" vertex="1" parent="1">
          <mxGeometry x="665" y="150" width="80" height="80" as="geometry" />
        </mxCell>
        <mxCell id="z5392aBPXgnWjsZ3jZZj-20" value="" style="endArrow=none;dashed=1;html=1;rounded=0;" edge="1" parent="1">
          <mxGeometry width="50" height="50" relative="1" as="geometry">
            <mxPoint x="705" y="320" as="sourcePoint" />
            <mxPoint x="704.5" y="230" as="targetPoint" />
          </mxGeometry>
        </mxCell>
        <mxCell id="z5392aBPXgnWjsZ3jZZj-21" value="DataDosbing()" style="html=1;verticalAlign=bottom;endArrow=block;edgeStyle=elbowEdgeStyle;elbow=horizontal;curved=0;rounded=0;" edge="1" parent="1">
          <mxGeometry relative="1" as="geometry">
            <mxPoint x="575" y="365" as="sourcePoint" />
            <Array as="points">
              <mxPoint x="535" y="365" />
            </Array>
            <mxPoint x="460" y="365" as="targetPoint" />
          </mxGeometry>
        </mxCell>
        <mxCell id="z5392aBPXgnWjsZ3jZZj-22" value="" style="html=1;points=[];perimeter=orthogonalPerimeter;outlineConnect=0;targetShapes=umlLifeline;portConstraint=eastwest;newEdgeStyle={&quot;edgeStyle&quot;:&quot;elbowEdgeStyle&quot;,&quot;elbow&quot;:&quot;vertical&quot;,&quot;curved&quot;:0,&quot;rounded&quot;:0};" vertex="1" parent="1">
          <mxGeometry x="260" y="490" width="10" height="170" as="geometry" />
        </mxCell>
        <mxCell id="z5392aBPXgnWjsZ3jZZj-23" value="ImportDosbing()" style="html=1;verticalAlign=bottom;endArrow=block;edgeStyle=elbowEdgeStyle;elbow=vertical;curved=0;rounded=0;" edge="1" parent="1">
          <mxGeometry relative="1" as="geometry">
            <mxPoint x="270" y="500" as="sourcePoint" />
            <Array as="points">
              <mxPoint x="355" y="500" />
            </Array>
            <mxPoint x="440" y="500" as="targetPoint" />
          </mxGeometry>
        </mxCell>
        <mxCell id="z5392aBPXgnWjsZ3jZZj-24" value="" style="html=1;points=[];perimeter=orthogonalPerimeter;outlineConnect=0;targetShapes=umlLifeline;portConstraint=eastwest;newEdgeStyle={&quot;edgeStyle&quot;:&quot;elbowEdgeStyle&quot;,&quot;elbow&quot;:&quot;vertical&quot;,&quot;curved&quot;:0,&quot;rounded&quot;:0};" vertex="1" parent="1">
          <mxGeometry x="440" y="500" width="10" height="150" as="geometry" />
        </mxCell>
        <mxCell id="z5392aBPXgnWjsZ3jZZj-25" value="" style="group" vertex="1" connectable="0" parent="1">
          <mxGeometry x="575" y="510" width="10" height="370" as="geometry" />
        </mxCell>
        <mxCell id="z5392aBPXgnWjsZ3jZZj-26" value="" style="html=1;points=[[0,0,0,0,5],[0,1,0,0,-5],[1,0,0,0,5],[1,1,0,0,-5]];perimeter=orthogonalPerimeter;outlineConnect=0;targetShapes=umlLifeline;portConstraint=eastwest;newEdgeStyle={&quot;curved&quot;:0,&quot;rounded&quot;:0};" vertex="1" parent="z5392aBPXgnWjsZ3jZZj-25">
          <mxGeometry width="10" height="120" as="geometry" />
        </mxCell>
        <mxCell id="z5392aBPXgnWjsZ3jZZj-27" value="" style="group" vertex="1" connectable="0" parent="z5392aBPXgnWjsZ3jZZj-25">
          <mxGeometry y="135" width="10" height="235" as="geometry" />
        </mxCell>
        <mxCell id="z5392aBPXgnWjsZ3jZZj-28" value="" style="html=1;points=[];perimeter=orthogonalPerimeter;outlineConnect=0;targetShapes=umlLifeline;portConstraint=eastwest;newEdgeStyle={&quot;edgeStyle&quot;:&quot;elbowEdgeStyle&quot;,&quot;elbow&quot;:&quot;vertical&quot;,&quot;curved&quot;:0,&quot;rounded&quot;:0};" vertex="1" parent="z5392aBPXgnWjsZ3jZZj-27">
          <mxGeometry y="61.30434782608696" width="10" height="102.17391304347827" as="geometry" />
        </mxCell>
        <mxCell id="z5392aBPXgnWjsZ3jZZj-29" value="" style="endArrow=none;dashed=1;html=1;rounded=0;" edge="1" parent="z5392aBPXgnWjsZ3jZZj-27" target="z5392aBPXgnWjsZ3jZZj-28">
          <mxGeometry width="50" height="50" relative="1" as="geometry">
            <mxPoint x="4.730000000000018" y="235.00000000000003" as="sourcePoint" />
            <mxPoint x="4.730000000000018" y="204.34782608695653" as="targetPoint" />
          </mxGeometry>
        </mxCell>
        <mxCell id="z5392aBPXgnWjsZ3jZZj-30" value="" style="endArrow=none;dashed=1;html=1;rounded=0;" edge="1" parent="z5392aBPXgnWjsZ3jZZj-25" source="z5392aBPXgnWjsZ3jZZj-28" target="z5392aBPXgnWjsZ3jZZj-26">
          <mxGeometry width="50" height="50" relative="1" as="geometry">
            <mxPoint x="4.779999999999973" y="185" as="sourcePoint" />
            <mxPoint x="5" y="135" as="targetPoint" />
          </mxGeometry>
        </mxCell>
        <mxCell id="z5392aBPXgnWjsZ3jZZj-31" value="" style="endArrow=none;dashed=1;html=1;rounded=0;" edge="1" parent="1" source="z5392aBPXgnWjsZ3jZZj-33" target="z5392aBPXgnWjsZ3jZZj-32">
          <mxGeometry width="50" height="50" relative="1" as="geometry">
            <mxPoint x="705" y="520" as="sourcePoint" />
            <mxPoint x="704.5" y="480" as="targetPoint" />
          </mxGeometry>
        </mxCell>
        <mxCell id="z5392aBPXgnWjsZ3jZZj-32" value="" style="html=1;points=[[0,0,0,0,5],[0,1,0,0,-5],[1,0,0,0,5],[1,1,0,0,-5]];perimeter=orthogonalPerimeter;outlineConnect=0;targetShapes=umlLifeline;portConstraint=eastwest;newEdgeStyle={&quot;curved&quot;:0,&quot;rounded&quot;:0};" vertex="1" parent="1">
          <mxGeometry x="700" y="320" width="10" height="90" as="geometry" />
        </mxCell>
        <mxCell id="z5392aBPXgnWjsZ3jZZj-33" value="" style="html=1;points=[[0,0,0,0,5],[0,1,0,0,-5],[1,0,0,0,5],[1,1,0,0,-5]];perimeter=orthogonalPerimeter;outlineConnect=0;targetShapes=umlLifeline;portConstraint=eastwest;newEdgeStyle={&quot;curved&quot;:0,&quot;rounded&quot;:0};" vertex="1" parent="1">
          <mxGeometry x="700" y="527" width="10" height="83" as="geometry" />
        </mxCell>
        <mxCell id="z5392aBPXgnWjsZ3jZZj-34" value="" style="html=1;points=[];perimeter=orthogonalPerimeter;outlineConnect=0;targetShapes=umlLifeline;portConstraint=eastwest;newEdgeStyle={&quot;edgeStyle&quot;:&quot;elbowEdgeStyle&quot;,&quot;elbow&quot;:&quot;vertical&quot;,&quot;curved&quot;:0,&quot;rounded&quot;:0};" vertex="1" parent="1">
          <mxGeometry x="260" y="690" width="10" height="150" as="geometry" />
        </mxCell>
        <mxCell id="z5392aBPXgnWjsZ3jZZj-35" value="" style="endArrow=none;dashed=1;html=1;rounded=0;" edge="1" parent="1" source="z5392aBPXgnWjsZ3jZZj-34" target="z5392aBPXgnWjsZ3jZZj-22">
          <mxGeometry width="50" height="50" relative="1" as="geometry">
            <mxPoint x="264.78" y="690" as="sourcePoint" />
            <mxPoint x="264.78" y="660" as="targetPoint" />
          </mxGeometry>
        </mxCell>
        <mxCell id="z5392aBPXgnWjsZ3jZZj-36" value="DeleteDosbing()" style="html=1;verticalAlign=bottom;endArrow=block;edgeStyle=elbowEdgeStyle;elbow=vertical;curved=0;rounded=0;" edge="1" parent="1">
          <mxGeometry relative="1" as="geometry">
            <mxPoint x="270" y="700" as="sourcePoint" />
            <Array as="points">
              <mxPoint x="355" y="700" />
            </Array>
            <mxPoint x="440" y="700" as="targetPoint" />
          </mxGeometry>
        </mxCell>
        <mxCell id="z5392aBPXgnWjsZ3jZZj-37" value="" style="endArrow=none;dashed=1;html=1;rounded=0;" edge="1" parent="1" target="z5392aBPXgnWjsZ3jZZj-34">
          <mxGeometry width="50" height="50" relative="1" as="geometry">
            <mxPoint x="265" y="880" as="sourcePoint" />
            <mxPoint x="264.73" y="840" as="targetPoint" />
          </mxGeometry>
        </mxCell>
        <mxCell id="z5392aBPXgnWjsZ3jZZj-38" value="" style="html=1;points=[];perimeter=orthogonalPerimeter;outlineConnect=0;targetShapes=umlLifeline;portConstraint=eastwest;newEdgeStyle={&quot;edgeStyle&quot;:&quot;elbowEdgeStyle&quot;,&quot;elbow&quot;:&quot;vertical&quot;,&quot;curved&quot;:0,&quot;rounded&quot;:0};" vertex="1" parent="1">
          <mxGeometry x="440" y="700" width="10" height="120" as="geometry" />
        </mxCell>
        <mxCell id="z5392aBPXgnWjsZ3jZZj-39" value="" style="endArrow=none;dashed=1;html=1;rounded=0;" edge="1" parent="1" source="z5392aBPXgnWjsZ3jZZj-38" target="z5392aBPXgnWjsZ3jZZj-24">
          <mxGeometry width="50" height="50" relative="1" as="geometry">
            <mxPoint x="444.78" y="700" as="sourcePoint" />
            <mxPoint x="445" y="670" as="targetPoint" />
          </mxGeometry>
        </mxCell>
        <mxCell id="z5392aBPXgnWjsZ3jZZj-40" value="" style="endArrow=none;dashed=1;html=1;rounded=0;" edge="1" parent="1" target="z5392aBPXgnWjsZ3jZZj-38">
          <mxGeometry width="50" height="50" relative="1" as="geometry">
            <mxPoint x="444.73" y="880" as="sourcePoint" />
            <mxPoint x="444.73" y="850" as="targetPoint" />
          </mxGeometry>
        </mxCell>
        <mxCell id="z5392aBPXgnWjsZ3jZZj-41" value="" style="html=1;points=[];perimeter=orthogonalPerimeter;outlineConnect=0;targetShapes=umlLifeline;portConstraint=eastwest;newEdgeStyle={&quot;edgeStyle&quot;:&quot;elbowEdgeStyle&quot;,&quot;elbow&quot;:&quot;vertical&quot;,&quot;curved&quot;:0,&quot;rounded&quot;:0};" vertex="1" parent="1">
          <mxGeometry x="700" y="720" width="10" height="70" as="geometry" />
        </mxCell>
        <mxCell id="z5392aBPXgnWjsZ3jZZj-42" value="" style="endArrow=none;dashed=1;html=1;rounded=0;" edge="1" parent="1" source="z5392aBPXgnWjsZ3jZZj-41" target="z5392aBPXgnWjsZ3jZZj-33">
          <mxGeometry width="50" height="50" relative="1" as="geometry">
            <mxPoint x="704.78" y="695" as="sourcePoint" />
            <mxPoint x="705" y="645" as="targetPoint" />
          </mxGeometry>
        </mxCell>
        <mxCell id="z5392aBPXgnWjsZ3jZZj-43" value="" style="endArrow=none;dashed=1;html=1;rounded=0;" edge="1" parent="1" target="z5392aBPXgnWjsZ3jZZj-41">
          <mxGeometry width="50" height="50" relative="1" as="geometry">
            <mxPoint x="704.73" y="875" as="sourcePoint" />
            <mxPoint x="704.73" y="845" as="targetPoint" />
          </mxGeometry>
        </mxCell>
        <mxCell id="z5392aBPXgnWjsZ3jZZj-44" value="Button" style="shape=umlBoundary;whiteSpace=wrap;html=1;" vertex="1" parent="1">
          <mxGeometry x="395" y="160" width="85" height="70" as="geometry" />
        </mxCell>
        <mxCell id="z5392aBPXgnWjsZ3jZZj-45" value="" style="html=1;points=[];perimeter=orthogonalPerimeter;outlineConnect=0;targetShapes=umlLifeline;portConstraint=eastwest;newEdgeStyle={&quot;edgeStyle&quot;:&quot;elbowEdgeStyle&quot;,&quot;elbow&quot;:&quot;vertical&quot;,&quot;curved&quot;:0,&quot;rounded&quot;:0};" vertex="1" parent="1">
          <mxGeometry x="440" y="250" width="10" height="190" as="geometry" />
        </mxCell>
        <mxCell id="z5392aBPXgnWjsZ3jZZj-46" value="" style="html=1;points=[[0,0,0,0,5],[0,1,0,0,-5],[1,0,0,0,5],[1,1,0,0,-5]];perimeter=orthogonalPerimeter;outlineConnect=0;targetShapes=umlLifeline;portConstraint=eastwest;newEdgeStyle={&quot;curved&quot;:0,&quot;rounded&quot;:0};" vertex="1" parent="1">
          <mxGeometry x="450" y="365" width="10" height="30" as="geometry" />
        </mxCell>
        <mxCell id="z5392aBPXgnWjsZ3jZZj-47" value="" style="endArrow=none;dashed=1;html=1;rounded=0;" edge="1" parent="1" source="z5392aBPXgnWjsZ3jZZj-24" target="z5392aBPXgnWjsZ3jZZj-45">
          <mxGeometry width="50" height="50" relative="1" as="geometry">
            <mxPoint x="444.58000000000004" y="480" as="sourcePoint" />
            <mxPoint x="444.58000000000004" y="450" as="targetPoint" />
          </mxGeometry>
        </mxCell>
        <mxCell id="z5392aBPXgnWjsZ3jZZj-48" value="" style="endArrow=none;dashed=1;html=1;rounded=0;entryX=0.575;entryY=1.016;entryDx=0;entryDy=0;entryPerimeter=0;" edge="1" parent="1" source="z5392aBPXgnWjsZ3jZZj-45" target="z5392aBPXgnWjsZ3jZZj-44">
          <mxGeometry width="50" height="50" relative="1" as="geometry">
            <mxPoint x="444.58" y="240" as="sourcePoint" />
            <mxPoint x="445" y="240" as="targetPoint" />
          </mxGeometry>
        </mxCell>
        <mxCell id="z5392aBPXgnWjsZ3jZZj-49" value="DataDosbing()" style="html=1;verticalAlign=bottom;endArrow=block;edgeStyle=elbowEdgeStyle;elbow=horizontal;curved=0;rounded=0;" edge="1" parent="1">
          <mxGeometry relative="1" as="geometry">
            <mxPoint x="575" y="585" as="sourcePoint" />
            <Array as="points">
              <mxPoint x="535" y="585" />
            </Array>
            <mxPoint x="460" y="585" as="targetPoint" />
          </mxGeometry>
        </mxCell>
        <mxCell id="z5392aBPXgnWjsZ3jZZj-50" value="" style="html=1;points=[[0,0,0,0,5],[0,1,0,0,-5],[1,0,0,0,5],[1,1,0,0,-5]];perimeter=orthogonalPerimeter;outlineConnect=0;targetShapes=umlLifeline;portConstraint=eastwest;newEdgeStyle={&quot;curved&quot;:0,&quot;rounded&quot;:0};" vertex="1" parent="1">
          <mxGeometry x="450" y="585" width="10" height="30" as="geometry" />
        </mxCell>
        <mxCell id="z5392aBPXgnWjsZ3jZZj-51" value="DataDosbing()" style="html=1;verticalAlign=bottom;endArrow=block;edgeStyle=elbowEdgeStyle;elbow=vertical;curved=0;rounded=0;" edge="1" parent="1">
          <mxGeometry relative="1" as="geometry">
            <mxPoint x="700" y="567" as="sourcePoint" />
            <Array as="points">
              <mxPoint x="670" y="567" />
            </Array>
            <mxPoint x="595" y="567" as="targetPoint" />
          </mxGeometry>
        </mxCell>
        <mxCell id="z5392aBPXgnWjsZ3jZZj-52" value="" style="html=1;points=[[0,0,0,0,5],[0,1,0,0,-5],[1,0,0,0,5],[1,1,0,0,-5]];perimeter=orthogonalPerimeter;outlineConnect=0;targetShapes=umlLifeline;portConstraint=eastwest;newEdgeStyle={&quot;curved&quot;:0,&quot;rounded&quot;:0};" vertex="1" parent="1">
          <mxGeometry x="585" y="567" width="10" height="30" as="geometry" />
        </mxCell>
        <mxCell id="z5392aBPXgnWjsZ3jZZj-53" value="return" style="html=1;verticalAlign=bottom;endArrow=open;dashed=1;endSize=8;edgeStyle=elbowEdgeStyle;elbow=vertical;curved=0;rounded=0;" edge="1" parent="1">
          <mxGeometry relative="1" as="geometry">
            <mxPoint x="270" y="640" as="targetPoint" />
            <Array as="points">
              <mxPoint x="365" y="640" />
            </Array>
            <mxPoint x="440" y="640" as="sourcePoint" />
          </mxGeometry>
        </mxCell>
        <mxCell id="z5392aBPXgnWjsZ3jZZj-54" value="return" style="html=1;verticalAlign=bottom;endArrow=open;dashed=1;endSize=8;edgeStyle=elbowEdgeStyle;elbow=vertical;curved=0;rounded=0;" edge="1" parent="1">
          <mxGeometry relative="1" as="geometry">
            <mxPoint x="270" y="820" as="targetPoint" />
            <Array as="points">
              <mxPoint x="365" y="820" />
            </Array>
            <mxPoint x="440" y="820" as="sourcePoint" />
          </mxGeometry>
        </mxCell>
        <mxCell id="z5392aBPXgnWjsZ3jZZj-55" value="validasiFile()" style="html=1;verticalAlign=bottom;endArrow=block;edgeStyle=elbowEdgeStyle;elbow=vertical;curved=0;rounded=0;" edge="1" parent="1">
          <mxGeometry relative="1" as="geometry">
            <mxPoint x="584" y="540" as="sourcePoint" />
            <Array as="points">
              <mxPoint x="667" y="540" />
            </Array>
            <mxPoint x="699" y="540" as="targetPoint" />
          </mxGeometry>
        </mxCell>
        <mxCell id="z5392aBPXgnWjsZ3jZZj-56" value="ImportFile()" style="html=1;verticalAlign=bottom;endArrow=block;edgeStyle=elbowEdgeStyle;elbow=vertical;curved=0;rounded=0;" edge="1" parent="1">
          <mxGeometry relative="1" as="geometry">
            <mxPoint x="450" y="520" as="sourcePoint" />
            <Array as="points">
              <mxPoint x="523" y="520" />
            </Array>
            <mxPoint x="575" y="520" as="targetPoint" />
          </mxGeometry>
        </mxCell>
        <mxCell id="z5392aBPXgnWjsZ3jZZj-57" value="Validasi()" style="html=1;verticalAlign=bottom;endArrow=block;edgeStyle=elbowEdgeStyle;elbow=vertical;curved=0;rounded=0;" edge="1" parent="1">
          <mxGeometry relative="1" as="geometry">
            <mxPoint x="585" y="722" as="sourcePoint" />
            <Array as="points">
              <mxPoint x="668" y="722" />
            </Array>
            <mxPoint x="700" y="722" as="targetPoint" />
          </mxGeometry>
        </mxCell>
        <mxCell id="z5392aBPXgnWjsZ3jZZj-58" value="DeleteData()" style="html=1;verticalAlign=bottom;endArrow=block;edgeStyle=elbowEdgeStyle;elbow=vertical;curved=0;rounded=0;" edge="1" parent="1">
          <mxGeometry relative="1" as="geometry">
            <mxPoint x="450" y="710" as="sourcePoint" />
            <Array as="points">
              <mxPoint x="523" y="710" />
            </Array>
            <mxPoint x="575" y="710" as="targetPoint" />
          </mxGeometry>
        </mxCell>
        <mxCell id="z5392aBPXgnWjsZ3jZZj-59" value="DataDosbing()" style="html=1;verticalAlign=bottom;endArrow=block;edgeStyle=elbowEdgeStyle;elbow=horizontal;curved=0;rounded=0;" edge="1" parent="1" source="z5392aBPXgnWjsZ3jZZj-24">
          <mxGeometry relative="1" as="geometry">
            <mxPoint x="395" y="567" as="sourcePoint" />
            <Array as="points">
              <mxPoint x="355" y="567" />
            </Array>
            <mxPoint x="280" y="567" as="targetPoint" />
          </mxGeometry>
        </mxCell>
        <mxCell id="z5392aBPXgnWjsZ3jZZj-60" value="" style="html=1;points=[[0,0,0,0,5],[0,1,0,0,-5],[1,0,0,0,5],[1,1,0,0,-5]];perimeter=orthogonalPerimeter;outlineConnect=0;targetShapes=umlLifeline;portConstraint=eastwest;newEdgeStyle={&quot;curved&quot;:0,&quot;rounded&quot;:0};" vertex="1" parent="1">
          <mxGeometry x="270" y="567" width="10" height="30" as="geometry" />
        </mxCell>
        <mxCell id="z5392aBPXgnWjsZ3jZZj-61" value="FailedImport()" style="html=1;verticalAlign=bottom;endArrow=open;dashed=1;endSize=8;edgeStyle=elbowEdgeStyle;elbow=vertical;curved=0;rounded=0;" edge="1" parent="1">
          <mxGeometry relative="1" as="geometry">
            <mxPoint x="585" y="610" as="targetPoint" />
            <Array as="points" />
            <mxPoint x="700" y="610" as="sourcePoint" />
          </mxGeometry>
        </mxCell>
        <mxCell id="z5392aBPXgnWjsZ3jZZj-62" value="DataDosbing()" style="html=1;verticalAlign=bottom;endArrow=block;edgeStyle=elbowEdgeStyle;elbow=horizontal;curved=0;rounded=0;" edge="1" parent="1">
          <mxGeometry relative="1" as="geometry">
            <mxPoint x="575" y="780" as="sourcePoint" />
            <Array as="points">
              <mxPoint x="535" y="780" />
            </Array>
            <mxPoint x="460" y="780" as="targetPoint" />
          </mxGeometry>
        </mxCell>
        <mxCell id="z5392aBPXgnWjsZ3jZZj-63" value="" style="html=1;points=[[0,0,0,0,5],[0,1,0,0,-5],[1,0,0,0,5],[1,1,0,0,-5]];perimeter=orthogonalPerimeter;outlineConnect=0;targetShapes=umlLifeline;portConstraint=eastwest;newEdgeStyle={&quot;curved&quot;:0,&quot;rounded&quot;:0};" vertex="1" parent="1">
          <mxGeometry x="450" y="780" width="10" height="30" as="geometry" />
        </mxCell>
        <mxCell id="z5392aBPXgnWjsZ3jZZj-64" value="DataDosbing()" style="html=1;verticalAlign=bottom;endArrow=block;edgeStyle=elbowEdgeStyle;elbow=horizontal;curved=0;rounded=0;" edge="1" parent="1">
          <mxGeometry relative="1" as="geometry">
            <mxPoint x="440" y="760" as="sourcePoint" />
            <Array as="points">
              <mxPoint x="355" y="760" />
            </Array>
            <mxPoint x="280" y="760" as="targetPoint" />
          </mxGeometry>
        </mxCell>
        <mxCell id="z5392aBPXgnWjsZ3jZZj-65" value="" style="html=1;points=[[0,0,0,0,5],[0,1,0,0,-5],[1,0,0,0,5],[1,1,0,0,-5]];perimeter=orthogonalPerimeter;outlineConnect=0;targetShapes=umlLifeline;portConstraint=eastwest;newEdgeStyle={&quot;curved&quot;:0,&quot;rounded&quot;:0};" vertex="1" parent="1">
          <mxGeometry x="270" y="760" width="10" height="30" as="geometry" />
        </mxCell>
        <mxCell id="z5392aBPXgnWjsZ3jZZj-66" value="DataDosbing()" style="html=1;verticalAlign=bottom;endArrow=block;edgeStyle=elbowEdgeStyle;elbow=vertical;curved=0;rounded=0;" edge="1" parent="1">
          <mxGeometry relative="1" as="geometry">
            <mxPoint x="700" y="760" as="sourcePoint" />
            <Array as="points">
              <mxPoint x="670" y="760" />
            </Array>
            <mxPoint x="595" y="760" as="targetPoint" />
          </mxGeometry>
        </mxCell>
        <mxCell id="z5392aBPXgnWjsZ3jZZj-67" value="" style="html=1;points=[[0,0,0,0,5],[0,1,0,0,-5],[1,0,0,0,5],[1,1,0,0,-5]];perimeter=orthogonalPerimeter;outlineConnect=0;targetShapes=umlLifeline;portConstraint=eastwest;newEdgeStyle={&quot;curved&quot;:0,&quot;rounded&quot;:0};" vertex="1" parent="1">
          <mxGeometry x="585" y="760" width="10" height="30" as="geometry" />
        </mxCell>
        <mxCell id="z5392aBPXgnWjsZ3jZZj-68" value="DeletePilihan()" style="html=1;verticalAlign=bottom;endArrow=block;edgeStyle=elbowEdgeStyle;elbow=vertical;curved=0;rounded=0;" edge="1" parent="1">
          <mxGeometry relative="1" as="geometry">
            <mxPoint x="450" y="740" as="sourcePoint" />
            <Array as="points">
              <mxPoint x="523" y="740" />
            </Array>
            <mxPoint x="575" y="740" as="targetPoint" />
          </mxGeometry>
        </mxCell>
      </root>
    </mxGraphModel>
  </diagram>
</mxfile>
